<svg width="12" height="13" viewBox="0 0 12 13" fill="none" xmlns="http://www.w3.org/2000/svg">
<path fill-rule="evenodd" clip-rule="evenodd" d="M5.82339 1.08333C4.92585 1.08333 4.19839 1.80917 4.19839 2.70833H7.44839C7.44839 1.80917 6.72093 1.08333 5.82339 1.08333ZM7.44839 3.79167V4.33333C7.44839 4.63125 7.69105 4.875 7.99005 4.875C8.28905 4.875 8.53172 4.63125 8.53172 4.33333V3.79167H9.19364C9.46826 3.79167 9.69901 3.9975 9.73151 4.26833L10.5597 11.31C10.5976 11.635 10.3463 11.9167 10.0218 11.9167H1.62493C1.30047 11.9167 1.04914 11.635 1.08705 11.31L1.91526 4.26833C1.94776 3.9975 2.17851 3.79167 2.45314 3.79167H3.11506V4.33333C3.11506 4.63125 3.35772 4.875 3.65672 4.875C3.95572 4.875 4.19839 4.63125 4.19839 4.33333V3.79167H7.44839ZM3.11506 2.70833H2.45314C1.62926 2.70833 0.93593 3.32583 0.839513 4.14375L0.011305 11.1854C-0.102445 12.1496 0.652097 13 1.62493 13H10.0218C10.9947 13 11.7492 12.1496 11.6355 11.1854L10.8073 4.14375C10.7108 3.32583 10.0175 2.70833 9.19364 2.70833H8.53172C8.53172 1.21333 7.31893 0 5.82339 0C4.32731 0 3.11506 1.21333 3.11506 2.70833Z" fill="white"/>
</svg>
